/* XPM */
static char * bottom_left_inactive = {
"4 4 2 1",
".      c none",
"#      c #32302f",
"####",
".###",
"..##",
"...#",
};
