/* XPM */
static char * bottom_right_inactive = {
"4 4 2 1",
".      c none",
"#      c #32302f",
"####",
"###.",
"##..",
"#...",
};
