/* XPM */
static char * top_right_active = {
"4 4 2 1",
".      c none",
"#      c #32302f",
"#...",
"##..",
"###.",
"####",
};
